<svg version="1.1" id="Layer_1" xmlns="http://www.w3.org/2000/svg" xmlns:xlink="http://www.w3.org/1999/xlink" x="0px" y="0px"
	 width="100%" viewBox="0 0 1000 1000" enable-background="new 0 0 1000 1000" xml:space="preserve">
<path fill="#5564F5" opacity="1.000000" stroke="none" 
	d="
M630.000000,1001.000000 
	C420.000000,1001.000000 210.500000,1001.000000 1.000000,1001.000000 
	C1.000000,667.666687 1.000000,334.333344 1.000000,1.000000 
	C334.333344,1.000000 667.666687,1.000000 1001.000000,1.000000 
	C1001.000000,334.333344 1001.000000,667.666687 1001.000000,1001.000000 
	C877.500000,1001.000000 754.000000,1001.000000 630.000000,1001.000000 
M371.096771,217.656204 
	C363.963776,219.239471 356.779846,220.624191 349.706360,222.439346 
	C313.093719,231.834686 277.444427,244.012482 243.181198,260.045624 
	C240.350266,261.370331 237.512558,263.675903 235.811813,266.269287 
	C214.707520,298.450562 196.112808,332.044189 180.386246,367.174011 
	C157.813065,417.597748 141.037277,469.891052 132.671722,524.551941 
	C128.627029,550.980286 125.293633,577.695190 124.363594,604.375366 
	C123.309662,634.609558 125.338058,664.949463 125.940376,695.245178 
	C126.010452,698.769958 127.504501,700.981567 130.310516,703.047913 
	C157.970657,723.416809 187.008606,741.556580 217.541489,757.288391 
	C247.005737,772.469604 277.611908,784.899353 309.011505,795.489441 
	C313.945953,797.153625 316.520081,796.264282 319.079010,792.034973 
	C328.203918,776.953857 337.619537,762.048828 346.770416,746.983154 
	C349.297638,742.822266 351.287354,738.335022 353.027863,734.959229 
	C333.037872,724.705383 313.785339,714.947693 294.663239,704.940796 
	C289.704437,702.345764 289.745026,699.679504 294.042023,696.314209 
	C297.580994,693.542542 300.868896,690.353027 304.710236,688.103943 
	C306.765869,686.900391 310.242645,686.216125 312.250641,687.125122 
	C342.939728,701.019226 374.592072,711.890991 407.522583,719.147522 
	C432.121399,724.568176 456.963013,728.458557 482.097015,728.833252 
	C504.196075,729.162720 526.386108,728.416809 548.420837,726.682617 
	C572.470276,724.789795 596.056763,719.578735 619.296143,712.955139 
	C643.158875,706.153931 666.296875,697.472900 688.848816,687.138611 
	C690.736084,686.273743 693.960144,686.367981 695.663147,687.442749 
	C699.999023,690.179077 703.882385,693.654968 707.836670,696.966492 
	C711.137634,699.730896 711.008118,702.140625 707.296692,704.401550 
	C702.043579,707.601501 696.770996,710.821960 691.264404,713.543091 
	C676.998169,720.592651 662.599426,727.373901 648.109131,734.331604 
	C648.107361,734.358765 647.948730,734.762573 648.084778,734.989807 
	C660.039368,754.946533 671.968628,774.919128 684.123047,794.753723 
	C684.784607,795.833191 687.589172,796.529968 688.973511,796.086304 
	C698.614441,792.996094 708.186157,789.674316 717.701538,786.211121 
	C773.125305,766.039551 824.025085,737.526062 871.344116,702.491211 
	C873.084717,701.202393 874.691895,698.559937 874.823059,696.452698 
	C876.073242,676.358154 877.796387,656.244141 877.823608,636.133545 
	C877.869324,602.342224 875.332520,568.695007 870.275391,535.205750 
	C866.049255,507.218842 860.083252,479.666962 852.220703,452.534088 
	C832.815857,385.570007 802.990845,323.433563 764.523438,265.386963 
	C763.148743,263.312500 760.927856,261.370361 758.659058,260.387390 
	C745.246338,254.576492 731.815308,248.776047 718.181030,243.514801 
	C684.142883,230.380096 649.035339,220.978653 613.202087,214.218536 
	C610.293823,213.669891 608.345459,214.004272 606.903076,217.200272 
	C602.804382,226.282120 598.122437,235.099731 593.975708,244.161209 
	C588.809570,255.450363 588.994507,254.936371 576.547363,253.788574 
	C552.376404,251.559708 528.165466,249.187347 503.923340,248.455490 
	C474.952667,247.580902 446.074371,250.448303 417.351105,254.349716 
	C413.531921,254.868469 411.518494,253.568008 409.945770,250.200424 
	C404.812378,239.208405 399.339539,228.374100 394.267456,217.354767 
	C392.866821,214.311798 391.087463,213.500809 388.046722,214.155029 
	C382.681030,215.309448 377.285767,216.326309 371.096771,217.656204 
z"/>
<path fill="#FFFFFF" opacity="1.000000" stroke="none" 
	d="
M371.499817,217.528473 
	C377.285767,216.326309 382.681030,215.309448 388.046722,214.155029 
	C391.087463,213.500809 392.866821,214.311798 394.267456,217.354767 
	C399.339539,228.374100 404.812378,239.208405 409.945770,250.200424 
	C411.518494,253.568008 413.531921,254.868469 417.351105,254.349716 
	C446.074371,250.448303 474.952667,247.580902 503.923340,248.455490 
	C528.165466,249.187347 552.376404,251.559708 576.547363,253.788574 
	C588.994507,254.936371 588.809570,255.450363 593.975708,244.161209 
	C598.122437,235.099731 602.804382,226.282120 606.903076,217.200272 
	C608.345459,214.004272 610.293823,213.669891 613.202087,214.218536 
	C649.035339,220.978653 684.142883,230.380096 718.181030,243.514801 
	C731.815308,248.776047 745.246338,254.576492 758.659058,260.387390 
	C760.927856,261.370361 763.148743,263.312500 764.523438,265.386963 
	C802.990845,323.433563 832.815857,385.570007 852.220703,452.534088 
	C860.083252,479.666962 866.049255,507.218842 870.275391,535.205750 
	C875.332520,568.695007 877.869324,602.342224 877.823608,636.133545 
	C877.796387,656.244141 876.073242,676.358154 874.823059,696.452698 
	C874.691895,698.559937 873.084717,701.202393 871.344116,702.491211 
	C824.025085,737.526062 773.125305,766.039551 717.701538,786.211121 
	C708.186157,789.674316 698.614441,792.996094 688.973511,796.086304 
	C687.589172,796.529968 684.784607,795.833191 684.123047,794.753723 
	C671.968628,774.919128 660.039368,754.946533 648.084778,734.989807 
	C647.948730,734.762573 648.107361,734.358765 648.109131,734.331604 
	C662.599426,727.373901 676.998169,720.592651 691.264404,713.543091 
	C696.770996,710.821960 702.043579,707.601501 707.296692,704.401550 
	C711.008118,702.140625 711.137634,699.730896 707.836670,696.966492 
	C703.882385,693.654968 699.999023,690.179077 695.663147,687.442749 
	C693.960144,686.367981 690.736084,686.273743 688.848816,687.138611 
	C666.296875,697.472900 643.158875,706.153931 619.296143,712.955139 
	C596.056763,719.578735 572.470276,724.789795 548.420837,726.682617 
	C526.386108,728.416809 504.196075,729.162720 482.097015,728.833252 
	C456.963013,728.458557 432.121399,724.568176 407.522583,719.147522 
	C374.592072,711.890991 342.939728,701.019226 312.250641,687.125122 
	C310.242645,686.216125 306.765869,686.900391 304.710236,688.103943 
	C300.868896,690.353027 297.580994,693.542542 294.042023,696.314209 
	C289.745026,699.679504 289.704437,702.345764 294.663239,704.940796 
	C313.785339,714.947693 333.037872,724.705383 353.027863,734.959229 
	C351.287354,738.335022 349.297638,742.822266 346.770416,746.983154 
	C337.619537,762.048828 328.203918,776.953857 319.079010,792.034973 
	C316.520081,796.264282 313.945953,797.153625 309.011505,795.489441 
	C277.611908,784.899353 247.005737,772.469604 217.541489,757.288391 
	C187.008606,741.556580 157.970657,723.416809 130.310516,703.047913 
	C127.504501,700.981567 126.010452,698.769958 125.940376,695.245178 
	C125.338058,664.949463 123.309662,634.609558 124.363594,604.375366 
	C125.293633,577.695190 128.627029,550.980286 132.671722,524.551941 
	C141.037277,469.891052 157.813065,417.597748 180.386246,367.174011 
	C196.112808,332.044189 214.707520,298.450562 235.811813,266.269287 
	C237.512558,263.675903 240.350266,261.370331 243.181198,260.045624 
	C277.444427,244.012482 313.093719,231.834686 349.706360,222.439346 
	C356.779846,220.624191 363.963776,219.239471 371.499817,217.528473 
M402.286255,630.163757 
	C429.954315,669.498657 478.905273,689.056152 525.622070,678.086731 
	C573.536072,666.836182 604.041992,635.385803 620.985901,590.422791 
	C631.206970,563.299988 630.850098,535.667358 619.554932,508.525177 
	C617.809448,504.330750 615.375183,501.744476 610.816223,500.700500 
	C602.545227,498.806396 594.362427,496.516846 586.173828,494.278656 
	C582.912903,493.387390 580.654541,494.075226 578.435730,496.876678 
	C573.006653,503.731537 567.195740,510.283905 561.216492,517.337830 
	C555.377502,509.113159 549.740601,501.500427 544.498779,493.624695 
	C542.469666,490.575989 540.153931,489.344086 536.660461,489.748962 
	C525.921021,490.993591 514.968750,491.251953 504.469940,493.571533 
	C466.919983,501.867737 431.991302,516.938293 398.924652,536.407776 
	C397.222046,537.410278 395.666412,539.352356 394.933441,541.208801 
	C382.869598,571.763611 383.909546,601.341003 402.286255,630.163757 
M611.639893,384.920837 
	C604.793945,382.868378 598.026245,380.464691 591.068481,378.914124 
	C587.674805,378.157837 583.675232,378.208679 580.389221,379.263153 
	C572.574646,381.770844 570.876648,390.140686 576.699158,395.961060 
	C578.418579,397.679779 580.629456,398.906982 582.916077,400.579620 
	C576.908630,402.683350 572.679993,406.214172 573.113953,412.859283 
	C573.552979,419.583435 579.225098,420.789001 584.267395,422.581238 
	C603.687500,429.484039 623.142883,436.293732 642.476013,443.433502 
	C664.928833,451.725372 687.260376,460.345337 709.659119,468.784119 
	C716.321960,471.294403 720.780090,468.931000 721.865479,462.453522 
	C722.748901,457.181274 720.218445,452.567261 715.134338,450.471649 
	C711.186829,448.844513 707.172180,447.380432 703.017395,445.778381 
	C711.767334,438.159088 711.490417,428.062775 702.655090,422.299744 
	C701.405762,421.484833 700.047607,420.832123 698.720337,420.141876 
	C671.052551,405.753754 642.049438,394.653503 611.639893,384.920837 
M289.506958,454.326050 
	C286.673218,461.898132 287.625061,464.956604 294.835938,470.798401 
	C292.502747,471.975464 290.289429,473.088226 288.079498,474.207642 
	C280.488129,478.052979 277.952057,485.292145 281.677856,492.474182 
	C285.212769,499.288269 291.652039,500.468079 299.498566,496.187714 
	C316.581543,486.868774 333.521942,477.238464 350.976898,468.664246 
	C372.016510,458.329163 393.533997,448.967621 414.834534,439.162781 
	C422.923157,435.439453 425.117950,429.168457 421.189819,421.210358 
	C420.839874,420.501404 420.508484,419.783264 420.228058,419.194550 
	C425.556274,412.571655 426.321228,407.903992 423.005493,403.216156 
	C419.668945,398.498901 413.636871,396.940887 406.825134,399.045471 
	C406.190186,399.241608 405.575226,399.501526 404.943420,399.708710 
	C367.030304,412.142639 331.148743,429.157135 296.150909,448.129272 
	C293.767273,449.421448 291.973083,451.800964 289.506958,454.326050 
z"/>
<path fill="#5564F5" opacity="1.000000" stroke="none" 
	d="
M402.095612,629.857056 
	C383.909546,601.341003 382.869598,571.763611 394.933441,541.208801 
	C395.666412,539.352356 397.222046,537.410278 398.924652,536.407776 
	C431.991302,516.938293 466.919983,501.867737 504.469940,493.571533 
	C514.968750,491.251953 525.921021,490.993591 536.660461,489.748962 
	C540.153931,489.344086 542.469666,490.575989 544.498779,493.624695 
	C549.740601,501.500427 555.377502,509.113159 561.216492,517.337830 
	C567.195740,510.283905 573.006653,503.731537 578.435730,496.876678 
	C580.654541,494.075226 582.912903,493.387390 586.173828,494.278656 
	C594.362427,496.516846 602.545227,498.806396 610.816223,500.700500 
	C615.375183,501.744476 617.809448,504.330750 619.554932,508.525177 
	C630.850098,535.667358 631.206970,563.299988 620.985901,590.422791 
	C604.041992,635.385803 573.536072,666.836182 525.622070,678.086731 
	C478.905273,689.056152 429.954315,669.498657 402.095612,629.857056 
z"/>
<path fill="#5665F5" opacity="1.000000" stroke="none" 
	d="
M612.028503,385.012146 
	C642.049438,394.653503 671.052551,405.753754 698.720337,420.141876 
	C700.047607,420.832123 701.405762,421.484833 702.655090,422.299744 
	C711.490417,428.062775 711.767334,438.159088 703.017395,445.778381 
	C707.172180,447.380432 711.186829,448.844513 715.134338,450.471649 
	C720.218445,452.567261 722.748901,457.181274 721.865479,462.453522 
	C720.780090,468.931000 716.321960,471.294403 709.659119,468.784119 
	C687.260376,460.345337 664.928833,451.725372 642.476013,443.433502 
	C623.142883,436.293732 603.687500,429.484039 584.267395,422.581238 
	C579.225098,420.789001 573.552979,419.583435 573.113953,412.859283 
	C572.679993,406.214172 576.908630,402.683350 582.916077,400.579620 
	C580.629456,398.906982 578.418579,397.679779 576.699158,395.961060 
	C570.876648,390.140686 572.574646,381.770844 580.389221,379.263153 
	C583.675232,378.208679 587.674805,378.157837 591.068481,378.914124 
	C598.026245,380.464691 604.793945,382.868378 612.028503,385.012146 
z"/>
<path fill="#5665F5" opacity="1.000000" stroke="none" 
	d="
M289.705872,454.000397 
	C291.973083,451.800964 293.767273,449.421448 296.150909,448.129272 
	C331.148743,429.157135 367.030304,412.142639 404.943420,399.708710 
	C405.575226,399.501526 406.190186,399.241608 406.825134,399.045471 
	C413.636871,396.940887 419.668945,398.498901 423.005493,403.216156 
	C426.321228,407.903992 425.556274,412.571655 420.228058,419.194550 
	C420.508484,419.783264 420.839874,420.501404 421.189819,421.210358 
	C425.117950,429.168457 422.923157,435.439453 414.834534,439.162781 
	C393.533997,448.967621 372.016510,458.329163 350.976898,468.664246 
	C333.521942,477.238464 316.581543,486.868774 299.498566,496.187714 
	C291.652039,500.468079 285.212769,499.288269 281.677856,492.474182 
	C277.952057,485.292145 280.488129,478.052979 288.079498,474.207642 
	C290.289429,473.088226 292.502747,471.975464 294.835938,470.798401 
	C287.625061,464.956604 286.673218,461.898132 289.705872,454.000397 
z"/>
</svg>